<svg width="153" height="38" viewBox="0 0 153 38" fill="none" xmlns="http://www.w3.org/2000/svg">
<g style="mix-blend-mode:overlay">
<path d="M48.6566 38V21.6781C44.7945 21.5656 41.0733 21.4321 37.4933 21.2774C33.9131 21.1088 30.6261 20.9542 27.6317 20.8135V25.5372C27.6317 27.435 27.3497 29.087 26.7857 30.4928C26.2432 31.8846 25.3751 33.0444 24.182 33.9723C22.9886 34.9 21.4696 35.5889 19.6255 36.0389C17.7811 36.4887 15.568 36.7136 12.986 36.7136C11.1634 36.7136 9.46011 36.5379 7.87619 36.1864C6.29227 35.821 4.9145 35.3078 3.74283 34.6471C2.57116 33.9863 1.64901 33.1919 0.976393 32.2642C0.325464 31.3363 0 30.3029 0 29.1642C0 27.927 0.43396 26.7251 1.30186 25.5583C2.16975 24.3774 3.43905 23.337 5.10976 22.4372C6.80217 21.5376 8.88514 20.8135 11.3586 20.2653C13.8539 19.717 16.7288 19.4429 19.9834 19.4429H22.6522V15.9001C22.6522 14.7754 22.6848 13.6999 22.7499 12.6737C22.8365 11.6334 23.0427 10.6282 23.3682 9.65813C23.6936 8.68805 24.1927 7.74619 24.8654 6.83241C25.5379 5.91863 26.4601 5.01184 27.6317 4.11217C26.4383 4.68843 25.1365 5.07512 23.7262 5.27196C22.3376 5.4688 20.9163 5.56715 19.4627 5.56715C18.4646 5.56715 17.4556 5.53907 16.4359 5.48277C15.4378 5.4125 14.4505 5.34223 13.4742 5.27196C12.4978 5.20169 11.5431 5.13841 10.6101 5.08211C9.69879 5.01184 8.82005 4.97663 7.97384 4.97663C7.06254 4.97663 6.27058 5.05403 5.59796 5.20867C4.92534 5.34921 4.37204 5.55304 3.93811 5.82014C3.50415 6.07328 3.17868 6.36847 2.96171 6.70584C2.74474 7.04322 2.63625 7.40183 2.63625 7.7814C2.63625 8.16097 2.77728 8.53355 3.05934 8.899C3.34143 9.25049 3.75367 9.57375 4.2961 9.86908C4.83854 10.1502 5.50031 10.3751 6.28143 10.5438C7.08423 10.7126 7.98468 10.7968 8.98277 10.7968C9.89407 10.7968 10.7186 10.7407 11.4563 10.6282C12.194 10.5158 12.8232 10.3892 13.344 10.2486C13.9515 10.094 14.4939 9.90415 14.9713 9.67923L15.6548 10.586C15.0689 10.839 14.418 11.057 13.702 11.2397C13.0944 11.3943 12.3784 11.542 11.5539 11.6825C10.7511 11.8091 9.89407 11.8724 8.98277 11.8724C7.72431 11.8724 6.5852 11.7599 5.5654 11.535C4.54563 11.296 3.66689 10.9797 2.92918 10.586C2.21316 10.1784 1.64901 9.70032 1.23676 9.152C0.846207 8.58971 0.650929 7.98522 0.650929 7.33855C0.650929 6.57942 0.867897 5.91165 1.30186 5.33524C1.73579 4.74473 2.32163 4.24572 3.05934 3.83793C3.81877 3.43029 4.69751 3.12099 5.69559 2.9101C6.71539 2.69922 7.8111 2.59379 8.98277 2.59379C10.1761 2.59379 11.3586 2.64299 12.5303 2.7414C13.702 2.8398 14.8628 2.95223 16.0127 3.0788C17.1844 3.19126 18.3344 3.29673 19.4627 3.39508C20.6125 3.49357 21.7408 3.54275 22.8475 3.54275C23.9541 3.54275 25.039 3.47946 26.1022 3.35289C27.1654 3.21236 28.2393 2.95936 29.3243 2.59379L30.6585 3.24756C30.1595 3.66932 29.7255 4.14025 29.3568 4.66035C28.9879 5.1806 28.6733 5.81316 28.4129 6.55832C28.1524 7.30334 27.9573 8.19603 27.8271 9.23638C27.6968 10.2626 27.6317 11.5068 27.6317 12.9689V19.4429H48.6566V13.3906C48.6566 12.027 48.7109 10.8179 48.8193 9.76361C48.9278 8.69518 49.0798 7.74619 49.2749 6.91679C49.492 6.07328 49.7523 5.32812 50.0561 4.68144C50.3599 4.02066 50.707 3.42316 51.0977 2.88902C51.5099 2.35479 51.9548 1.85571 52.4321 1.39179C52.9093 0.927862 53.4192 0.463931 53.9617 0L55.2961 0.653714C54.9707 1.08954 54.6777 1.56752 54.4172 2.08768C54.1786 2.59379 53.9724 3.25455 53.7989 4.06998C53.6471 4.8713 53.5276 5.88343 53.441 7.10651C53.3541 8.31561 53.3107 9.83388 53.3107 11.6614V19.4429H58.9737L57.9649 21.8047C57.2055 21.8047 56.4244 21.8047 55.6216 21.8047C54.8405 21.8047 54.0701 21.7906 53.3107 21.7625V37.5782L48.6566 38ZM13.6369 35.6382C15.134 35.6382 16.4467 35.5047 17.575 35.2376C18.7033 34.9705 19.6362 34.5276 20.3741 33.909C21.1334 33.2904 21.6975 32.475 22.0664 31.4629C22.4569 30.4506 22.6522 29.1923 22.6522 27.6882V20.6027C21.9795 20.5746 21.3178 20.5535 20.6669 20.5394C20.0377 20.5253 19.4734 20.5183 18.9745 20.5183C17.0868 20.5183 15.4161 20.6519 13.9623 20.919C12.5086 21.172 11.2393 21.5165 10.1544 21.9523C9.06955 22.3881 8.14741 22.8942 7.388 23.4706C6.65029 24.047 6.05361 24.6585 5.59796 25.3051C5.14231 25.9378 4.81685 26.5915 4.62157 27.2664C4.42629 27.927 4.32866 28.5597 4.32866 29.1642C4.32866 30.3451 4.61072 31.3504 5.17485 32.1798C5.73899 32.9952 6.46586 33.663 7.35545 34.1831C8.24506 34.6892 9.24314 35.0618 10.3497 35.3007C11.4563 35.5258 12.552 35.6382 13.6369 35.6382ZM74.6611 32.1376C74.5527 32.2501 74.3899 32.4469 74.173 32.7281C73.9776 32.9952 73.7172 33.2974 73.3918 33.6348C73.088 33.9723 72.7191 34.3236 72.2853 34.6892C71.8731 35.0547 71.3957 35.3851 70.8532 35.6803C70.3108 35.9756 69.7032 36.2216 69.0307 36.4185C68.3798 36.6153 67.6527 36.7136 66.85 36.7136C66.2208 36.7136 65.5699 36.6293 64.8972 36.4606C64.2245 36.2919 63.5954 35.9826 63.0095 35.5328C62.4455 35.0829 61.9789 34.4713 61.61 33.6981C61.2411 32.9109 61.0568 31.8986 61.0568 30.6615C61.0568 29.4805 61.1219 28.2996 61.2521 27.1187C61.3823 25.9237 61.5341 24.8342 61.7077 23.8502C61.903 22.8661 62.0874 22.0437 62.2609 21.3829C62.4345 20.7221 62.5647 20.3215 62.6516 20.1809C62.7383 20.0544 62.9119 19.9419 63.1723 19.8436C63.4326 19.7451 63.7256 19.6678 64.0509 19.6115C64.3983 19.5554 64.7454 19.5132 65.0926 19.4849C65.4615 19.4569 65.776 19.4429 66.0363 19.4429C66.3834 19.4429 66.6546 19.4991 66.85 19.6115C67.0669 19.724 67.1756 19.9138 67.1756 20.1809C67.1756 20.3075 67.132 20.5605 67.0453 20.9401C66.9802 21.3055 66.8933 21.7555 66.7849 22.2897C66.6764 22.8239 66.557 23.4143 66.427 24.061C66.3185 24.7078 66.2098 25.3684 66.1014 26.0433C65.9929 26.704 65.8953 27.3647 65.8086 28.0255C65.7435 28.6722 65.7109 29.2627 65.7109 29.7969C65.7109 31.3293 65.9604 32.468 66.4595 33.213C66.9802 33.9582 67.8263 34.3308 68.9981 34.3308C69.9962 34.3308 71.005 33.8598 72.0249 32.9178C73.0663 31.976 73.9669 30.6052 74.7262 28.8058C74.8347 28.0466 74.9324 27.2382 75.019 26.3807C75.1275 25.5091 75.2252 24.6867 75.3121 23.9134C75.3987 23.1261 75.4748 22.4233 75.5397 21.8047C75.6266 21.1861 75.7025 20.7432 75.7676 20.4761C75.8328 20.2793 76.0063 20.1176 76.2883 19.9911C76.5706 19.8505 76.8852 19.7451 77.2323 19.6748C77.6012 19.5904 77.9483 19.5343 78.2737 19.506C78.6208 19.464 78.8813 19.4429 79.0548 19.4429C79.4238 19.4429 79.6732 19.4991 79.8034 19.6115C79.9552 19.71 80.0311 19.8716 80.0311 20.0966C80.0311 20.2934 79.9986 20.673 79.9337 21.2352C79.8901 21.7836 79.825 22.4302 79.7383 23.1754C79.6732 23.9065 79.5973 24.6937 79.5104 25.5372C79.4238 26.3807 79.3369 27.1961 79.2502 27.9833C79.1851 28.7566 79.12 29.4594 79.0548 30.0921C79.0115 30.7247 78.9897 31.2027 78.9897 31.526C78.9897 32.4821 79.0656 33.2341 79.2176 33.7824C79.3912 34.3308 79.7601 34.6049 80.3241 34.6049C80.7364 34.6049 81.1812 34.4361 81.6586 34.0987C82.1575 33.7472 82.6892 33.2623 83.2532 32.6437C83.8392 32.0252 84.4684 31.2941 85.1409 30.4506C85.8136 29.593 86.5404 28.6581 87.3216 27.646L87.6471 27.2031L88.9813 27.8568L88.656 28.2996C87.6146 29.6352 86.6924 30.8302 85.8895 31.8846C85.1085 32.9248 84.3599 33.8035 83.6439 34.5205C82.9279 35.2376 82.201 35.7857 81.4632 36.1653C80.7256 36.5309 79.9011 36.7136 78.9897 36.7136C78.1435 36.7136 77.4384 36.6082 76.8742 36.3974C76.3319 36.1864 75.8979 35.8842 75.5723 35.4906C75.2469 35.0969 75.0083 34.619 74.8565 34.0565C74.7263 33.4942 74.6611 32.8546 74.6611 32.1376ZM106.687 29.3752C106.687 30.3311 106.459 31.2519 106.003 32.1376C105.569 33.0092 104.918 33.7894 104.05 34.4783C103.204 35.1532 102.141 35.6944 100.861 36.102C99.6023 36.5098 98.1595 36.7136 96.5322 36.7136C95.3606 36.7136 94.3082 36.5942 93.3753 36.3552C92.4639 36.102 91.6827 35.7718 91.0318 35.364C90.3809 34.9422 89.8819 34.4713 89.5348 33.9512C89.1875 33.417 89.0139 32.8687 89.0139 32.3064C89.0139 31.7439 89.1767 31.2238 89.5023 30.7458C89.8494 30.2538 90.305 29.8391 90.8692 29.5016C91.455 29.1503 92.1168 28.876 92.8544 28.6792C93.5922 28.4823 94.3733 28.384 95.1978 28.384C95.7185 28.384 96.261 28.4262 96.825 28.5106V29.122C96.1308 29.122 95.4473 29.2134 94.7746 29.3963C94.1236 29.579 93.5378 29.832 93.0171 30.1554C92.5182 30.4647 92.1168 30.8443 91.813 31.2941C91.5092 31.73 91.3574 32.2009 91.3574 32.707C91.3574 33.6348 91.8455 34.3799 92.8218 34.9422C93.8201 35.4906 95.176 35.7647 96.8901 35.7647C97.758 35.7647 98.5501 35.6593 99.266 35.4484C99.982 35.2235 100.59 34.9211 101.089 34.5416C101.609 34.148 102 33.6841 102.26 33.1499C102.542 32.6157 102.683 32.0321 102.683 31.3996C102.683 30.7951 102.499 30.2327 102.13 29.7126C101.761 29.1923 101.273 28.7003 100.665 28.2363C100.058 27.7725 99.3636 27.3367 98.5827 26.929C97.8231 26.5212 97.0422 26.1347 96.2392 25.7691C95.4581 25.3895 94.6879 25.0241 93.9285 24.6726C93.1691 24.3211 92.5072 23.9696 91.9432 23.6183L88.6885 28.2996L87.3541 27.646L90.6739 22.9434C89.8709 22.4513 89.2744 21.9874 88.8839 21.5517C88.515 21.1017 88.3306 20.5675 88.3306 19.9489C88.3306 19.6115 88.4173 19.2952 88.5909 19C88.7862 18.6907 89.0357 18.4306 89.3395 18.2198C89.6648 17.9948 90.0337 17.8192 90.446 17.6926C90.8582 17.566 91.2923 17.5027 91.7478 17.5027C92.5723 17.5027 93.1907 17.6574 93.603 17.9667C94.0152 18.2619 94.2213 18.6344 94.2213 19.0843C94.2213 19.2952 94.1888 19.5201 94.1237 19.7592C94.0588 19.9841 93.9719 20.216 93.8634 20.455C93.7765 20.6799 93.6788 20.8909 93.5704 21.0877C93.4837 21.2844 93.4078 21.4532 93.3427 21.5937C93.9936 21.9171 94.7746 22.2334 95.686 22.5427C96.5974 22.8379 97.5411 23.1472 98.5176 23.4706C99.5156 23.7939 100.503 24.1454 101.479 24.5249C102.455 24.9045 103.324 25.3262 104.083 25.7902C104.864 26.2541 105.493 26.7814 105.971 27.3717C106.448 27.9622 106.687 28.63 106.687 29.3752ZM91.813 18.4517C91.5092 18.4517 91.2597 18.522 91.0644 18.6625C90.8908 18.7891 90.8041 18.9648 90.8041 19.1898C90.8041 19.4429 90.9016 19.724 91.0969 20.0333C91.2923 20.3426 91.6394 20.6449 92.1385 20.9401C92.3554 20.6449 92.5182 20.3567 92.6267 20.0755C92.7569 19.7942 92.8218 19.5132 92.8218 19.2319C92.8218 19.007 92.7243 18.8243 92.529 18.6836C92.3554 18.529 92.1168 18.4517 91.813 18.4517ZM136.89 27.8568L136.564 28.2996C135.653 29.4805 134.785 30.5841 133.96 31.6104C133.136 32.6366 132.311 33.5294 131.487 34.2886C130.662 35.0477 129.816 35.6452 128.948 36.0811C128.102 36.5028 127.191 36.7136 126.214 36.7136C125.238 36.7136 124.283 36.5449 123.35 36.2075C122.417 35.8701 121.484 35.3992 120.551 34.7947C119.64 34.1901 118.718 33.4873 117.785 32.6859C116.874 31.8705 115.93 30.9848 114.953 30.0288L113.814 30.1554C113.771 31.3924 113.706 32.5102 113.619 33.5084C113.532 34.4924 113.424 35.3007 113.294 35.9334C113.228 36.2146 113.044 36.4185 112.74 36.5449C112.458 36.6573 112.068 36.7136 111.568 36.7136C110.983 36.7136 110.495 36.6645 110.104 36.566C109.713 36.4676 109.41 36.3482 109.193 36.2075C108.954 36.0529 108.791 35.8912 108.705 35.7225C108.596 35.5397 108.542 35.364 108.542 35.1954C108.542 34.2956 108.77 33.178 109.225 31.8424V20.9401C109.225 18.2408 109.442 15.9071 109.876 13.939C110.31 11.9568 110.896 10.3189 111.634 9.02557C112.371 7.71811 113.228 6.75502 114.205 6.13657C115.203 5.50386 116.255 5.18758 117.362 5.18758C118.555 5.18758 119.401 5.44058 119.9 5.94671C120.421 6.43874 120.681 7.12061 120.681 7.99221C120.681 8.75134 120.508 9.7284 120.161 10.9234C119.814 12.1043 119.325 13.4048 118.696 14.8247C118.089 16.2446 117.373 17.7276 116.548 19.2741C115.724 20.8065 114.834 22.3037 113.879 23.7658V24.2297C114.487 23.5972 115.192 22.9925 115.995 22.4161C116.819 21.8397 117.698 21.3337 118.631 20.8979C119.564 20.448 120.519 20.0966 121.495 19.8436C122.493 19.5764 123.47 19.4429 124.424 19.4429C125.271 19.4429 126.041 19.5201 126.735 19.6748C127.451 19.8294 128.069 20.0544 128.59 20.3495C129.111 20.6449 129.512 21.0173 129.794 21.4673C130.076 21.903 130.218 22.4092 130.218 22.9856C130.218 23.5761 130.011 24.1664 129.599 24.757C129.209 25.3473 128.579 25.9167 127.711 26.4651C126.865 27.0133 125.769 27.5335 124.424 28.0255C123.079 28.5034 121.452 28.9252 119.542 29.2908C119.673 29.4174 119.89 29.6282 120.193 29.9234C120.497 30.2187 120.855 30.5561 121.267 30.9356C121.701 31.3011 122.168 31.6878 122.667 32.0954C123.166 32.4891 123.676 32.8546 124.197 33.1919C124.739 33.5153 125.271 33.7894 125.791 34.0143C126.312 34.2253 126.789 34.3308 127.223 34.3308C127.809 34.3308 128.406 34.1761 129.013 33.8668C129.621 33.5434 130.25 33.0936 130.901 32.5172C131.574 31.9268 132.268 31.2238 132.984 30.4084C133.7 29.579 134.449 28.6581 135.23 27.646L135.555 27.2031L136.89 27.8568ZM113.879 26.0433C113.879 26.3666 113.868 26.6548 113.847 26.9079C113.847 27.1468 113.847 27.3858 113.847 27.6249C113.847 27.8498 113.836 28.0817 113.814 28.3207C113.814 28.5597 113.814 28.8269 113.814 29.122C116.027 28.9112 117.893 28.63 119.412 28.2785C120.953 27.927 122.2 27.5194 123.155 27.0554C124.11 26.5915 124.804 26.0855 125.238 25.5372C125.672 24.9749 125.889 24.3844 125.889 23.7658C125.889 23.4425 125.802 23.1332 125.628 22.8379C125.477 22.5286 125.249 22.2615 124.945 22.0366C124.641 21.7977 124.261 21.6078 123.806 21.4673C123.372 21.3266 122.884 21.2563 122.341 21.2563C121.582 21.2563 120.812 21.3899 120.031 21.657C119.271 21.9101 118.512 22.2545 117.752 22.6904C117.015 23.1261 116.31 23.6392 115.637 24.2297C114.986 24.8061 114.4 25.4106 113.879 26.0433ZM116.743 6.26299C116.288 6.26299 115.886 6.5512 115.539 7.1276C115.214 7.704 114.932 8.60382 114.693 9.82689C114.454 11.0359 114.259 12.5823 114.107 14.4662C113.955 16.336 113.836 18.5712 113.749 21.172C114.66 19.6115 115.398 18.1494 115.962 16.7858C116.526 15.4081 116.96 14.1709 117.264 13.0744C117.59 11.9638 117.807 11.0008 117.915 10.1854C118.024 9.35596 118.078 8.69518 118.078 8.20316C118.078 7.45799 117.969 6.95186 117.752 6.68475C117.557 6.40367 117.221 6.26299 116.743 6.26299ZM137.247 27.435L136.922 27.8568L136.597 28.2996L135.262 27.646L135.588 27.2031C136.13 26.4862 136.575 25.7691 136.922 25.0521C137.291 24.3211 137.584 23.6392 137.801 23.0067C138.039 22.3741 138.235 21.8188 138.387 21.3407C138.539 20.8628 138.69 20.5183 138.842 20.3075C138.972 20.1387 139.157 20.0052 139.396 19.9067C139.656 19.7942 139.916 19.7029 140.177 19.6326C140.459 19.5623 140.719 19.5132 140.958 19.4849C141.218 19.4569 141.403 19.4429 141.511 19.4429C141.988 19.4429 142.303 19.506 142.455 19.6326C142.628 19.7592 142.715 19.9841 142.715 20.3075C142.715 20.462 142.661 20.8487 142.553 21.4673C142.466 22.0718 142.357 22.8379 142.227 23.7658C142.119 24.6796 142.01 25.7129 141.902 26.8657C141.815 28.0044 141.771 29.1853 141.771 30.4084C141.771 31.2941 141.837 31.9971 141.967 32.5172C142.097 33.0233 142.26 33.4029 142.455 33.6559C142.672 33.909 142.9 34.0706 143.138 34.1409C143.399 34.2112 143.659 34.2464 143.92 34.2464C144.267 34.2464 144.657 34.148 145.091 33.9512C145.525 33.7544 146.035 33.4099 146.621 32.9178C147.207 32.4117 147.879 31.7369 148.639 30.8934C149.398 30.0358 150.288 28.9534 151.307 27.646L151.666 27.2031L153 27.8568L152.642 28.2996C151.817 29.34 150.993 30.3662 150.168 31.3785C149.366 32.3906 148.541 33.2904 147.695 34.0776C146.87 34.865 146.035 35.5047 145.189 35.9967C144.343 36.4746 143.496 36.7136 142.65 36.7136C141.761 36.7136 140.99 36.6012 140.339 36.3763C139.71 36.1372 139.178 35.7507 138.745 35.2165C138.332 34.6823 138.018 33.9793 137.801 33.1077C137.606 32.222 137.508 31.1325 137.508 29.8391C137.508 29.4735 137.508 29.094 137.508 28.7003C137.508 28.2926 137.529 27.8709 137.573 27.435H137.247ZM143.92 15.1199C143.92 15.6119 143.659 16.0267 143.138 16.364C142.639 16.6874 142.01 16.8491 141.251 16.8491C140.513 16.8491 139.884 16.6874 139.363 16.364C138.842 16.0267 138.582 15.6119 138.582 15.1199C138.582 14.6418 138.842 14.2342 139.363 13.8968C139.884 13.5594 140.513 13.3906 141.251 13.3906C142.01 13.3906 142.639 13.5594 143.138 13.8968C143.659 14.2342 143.92 14.6418 143.92 15.1199Z" fill="white"/>
</g>
</svg>
